<?xml version="1.0" encoding="UTF-8" standalone="no"?>
<svg width="54px" height="52px" viewBox="0 0 54 52" version="1.1" xmlns="http://www.w3.org/2000/svg" xmlns:xlink="http://www.w3.org/1999/xlink">
    <!-- Generator: sketchtool 39.1 (31720) - http://www.bohemiancoding.com/sketch -->
    <title>22B66CC8-5FF2-4044-B0BF-BA2A65CAF8DA</title>
    <desc>Created with sketchtool.</desc>
    <defs>
        <path d="M14.1544118,14.4375 L10.5147059,18.5 L4.04411765,18.5 C1.81985294,18.5 0,20.328125 0,22.5625 L0,46.9375 C0,49.171875 1.81985294,51 4.04411765,51 L36.3970588,51 C38.6213235,51 40.4411765,49.171875 40.4411765,46.9375 L40.4411765,22.5625 C40.4411765,20.328125 38.6213235,18.5 36.3970588,18.5 L29.9264706,18.5 L26.2867647,14.4375 L14.1544118,14.4375 L14.1544118,14.4375 Z M20.5,41.4375 C16.3,41.4375 13,38.1375 13,33.9375 C13,29.7375 16.3,26.4375 20.5,26.4375 C24.7,26.4375 28,29.7375 28,33.9375 C28,38.1375 24.7,41.4375 20.5,41.4375 L20.5,41.4375 Z" id="path-1"></path>
        <mask id="mask-2" maskContentUnits="userSpaceOnUse" maskUnits="objectBoundingBox" x="0" y="0" width="40.4411765" height="36.5625" fill="white">
            <use xlink:href="#path-1"></use>
        </mask>
    </defs>
    <g id="Supermarket" stroke="none" stroke-width="1" fill="none" fill-rule="evenodd" opacity="0.5">
        <g id="2-Sign-Up" transform="translate(-667.000000, -56.000000)">
            <g id="navbar">
                <g id="add" transform="translate(667.000000, 57.000000)">
                    <g id="group" stroke="#FFFFFF">
                        <use id="shape" mask="url(#mask-2)" stroke-width="4" xlink:href="#path-1"></use>
                        <path d="M50.2519016,3.13298676 L39.980085,13.2058147" id="line" stroke-width="2" stroke-linecap="square" transform="translate(45.115993, 8.169401) rotate(-315.000000) translate(-45.115993, -8.169401) "></path>
                        <path d="M50.5050924,13.4101258 L39.7260256,2.83987423" id="line" stroke-width="2" stroke-linecap="square" transform="translate(45.115559, 8.125000) rotate(-315.000000) translate(-45.115559, -8.125000) "></path>
                    </g>
                    <rect id="bounds" x="2" y="0" width="50" height="50"></rect>
                </g>
            </g>
        </g>
    </g>
</svg>